<mxfile host="65bd71144e">
    <diagram id="LAPdCfiuaq0fyCydjMPT" name="Page-1">
        <mxGraphModel dx="1395" dy="567" grid="1" gridSize="10" guides="1" tooltips="1" connect="1" arrows="1" fold="1" page="1" pageScale="1" pageWidth="850" pageHeight="1100" math="0" shadow="0">
            <root>
                <mxCell id="0"/>
                <mxCell id="1" parent="0"/>
                <mxCell id="2" value="&lt;font color=&quot;#ffffff&quot;&gt;TAF Run ID Class&lt;/font&gt;" style="swimlane;whiteSpace=wrap;html=1;fillColor=#1E1A22;glass=0;rounded=0;shadow=0;swimlaneFillColor=#1A151F;startSize=23;container=0;" parent="1" vertex="1">
                    <mxGeometry x="40" y="668" width="300" height="160" as="geometry"/>
                </mxCell>
                <object label="" id="3">
                    <mxCell style="verticalLabelPosition=bottom;verticalAlign=top;html=1;shape=process;whiteSpace=wrap;rounded=1;size=0.14;arcSize=6;container=0;" parent="2" vertex="1">
                        <mxGeometry y="20" width="300" height="140" as="geometry"/>
                    </mxCell>
                </object>
                <mxCell id="4" value="&lt;div style=&quot;color: rgb(131, 148, 150); font-family: Consolas, &amp;quot;Courier New&amp;quot;, monospace; font-size: 14px; line-height: 19px;&quot;&gt;&lt;div style=&quot;&quot;&gt;&lt;span style=&quot;background-color: rgb(24, 20, 29);&quot;&gt;state_cds: &lt;/span&gt;&lt;span style=&quot;color: rgb(203, 75, 22);&quot;&gt;list&lt;/span&gt;&lt;span style=&quot;background-color: rgb(24, 20, 29);&quot;&gt;,&lt;/span&gt;&lt;br&gt;&lt;/div&gt;&lt;div style=&quot;&quot;&gt;&lt;span style=&quot;background-color: rgb(24, 20, 29);&quot;&gt;file_type: &lt;span style=&quot;color: #cb4b16;&quot;&gt;str&lt;/span&gt;,&lt;/span&gt;&lt;/div&gt;&lt;div style=&quot;&quot;&gt;&lt;span style=&quot;background-color: rgb(24, 20, 29);&quot;&gt;reporting_period: &lt;span style=&quot;color: #cb4b16;&quot;&gt;str&lt;/span&gt;,&lt;/span&gt;&lt;/div&gt;&lt;div style=&quot;&quot;&gt;&lt;span style=&quot;background-color: rgb(24, 20, 29);&quot;&gt;ignore_errors: &lt;span style=&quot;color: rgb(203, 75, 22);&quot;&gt;int&lt;/span&gt; &lt;span style=&quot;color: rgb(133, 153, 0);&quot;&gt;=&lt;/span&gt; &lt;span style=&quot;color: rgb(211, 54, 130);&quot;&gt;0&lt;/span&gt;&lt;/span&gt;&lt;/div&gt;&lt;/div&gt;" style="rounded=0;whiteSpace=wrap;html=1;align=left;verticalAlign=top;container=0;" parent="2" vertex="1">
                    <mxGeometry x="40" y="20" width="220" height="140" as="geometry"/>
                </mxCell>
                <mxCell id="5" value="&lt;font color=&quot;#ffffff&quot;&gt;TAF_Runner Class&lt;br&gt;&lt;/font&gt;" style="swimlane;whiteSpace=wrap;html=1;fillColor=#1E1A22;glass=0;rounded=0;shadow=0;swimlaneFillColor=#1A151F;startSize=23;container=0;" parent="1" vertex="1">
                    <mxGeometry x="40" y="268" width="300" height="130" as="geometry"/>
                </mxCell>
                <object label="" id="6">
                    <mxCell style="verticalLabelPosition=bottom;verticalAlign=top;html=1;shape=process;whiteSpace=wrap;rounded=1;size=0.14;arcSize=6;container=0;" parent="1" vertex="1">
                        <mxGeometry x="40" y="289" width="300" height="207" as="geometry"/>
                    </mxCell>
                </object>
                <mxCell id="7" style="edgeStyle=none;html=1;exitX=0.5;exitY=1;exitDx=0;exitDy=0;entryX=0.5;entryY=0;entryDx=0;entryDy=0;fillColor=#b1ddf0;strokeColor=#10739e;strokeWidth=3;" parent="1" source="8" target="10" edge="1">
                    <mxGeometry relative="1" as="geometry"/>
                </mxCell>
                <mxCell id="8" value="&lt;div style=&quot;font-family: Consolas, &amp;quot;Courier New&amp;quot;, monospace; font-size: 14px; line-height: 19px;&quot;&gt;&lt;div style=&quot;&quot;&gt;&lt;div style=&quot;line-height: 19px;&quot;&gt;&lt;div style=&quot;&quot;&gt;&lt;span style=&quot;background-color: rgb(24, 20, 29);&quot;&gt;&lt;font style=&quot;font-size: 14px;&quot; color=&quot;#cb4b16&quot;&gt;&lt;u&gt;Parameters&lt;/u&gt;&lt;/font&gt;&lt;br&gt;&lt;font style=&quot;font-size: 14px;&quot; color=&quot;#839496&quot;&gt;da_schema: &lt;/font&gt;&lt;span style=&quot;color: rgb(203, 75, 22);&quot;&gt;str&lt;/span&gt;&lt;font style=&quot;font-size: 14px;&quot; color=&quot;#839496&quot;&gt;,&lt;/font&gt;&lt;/span&gt;&lt;/div&gt;&lt;div style=&quot;color: rgb(131, 148, 150);&quot;&gt;&lt;span style=&quot;background-color: rgb(24, 20, 29);&quot;&gt;reporting_period: &lt;span style=&quot;color: #cb4b16;&quot;&gt;str&lt;/span&gt;,&lt;/span&gt;&lt;/div&gt;&lt;div style=&quot;color: rgb(131, 148, 150);&quot;&gt;&lt;span style=&quot;background-color: rgb(24, 20, 29);&quot;&gt;state_code: &lt;span style=&quot;color: #cb4b16;&quot;&gt;str&lt;/span&gt;,&lt;/span&gt;&lt;/div&gt;&lt;div style=&quot;color: rgb(131, 148, 150);&quot;&gt;&lt;span style=&quot;background-color: rgb(24, 20, 29);&quot;&gt;run_id: &lt;span style=&quot;color: #cb4b16;&quot;&gt;str&lt;/span&gt;,&lt;/span&gt;&lt;/div&gt;&lt;div style=&quot;color: rgb(131, 148, 150);&quot;&gt;&lt;span style=&quot;background-color: rgb(24, 20, 29);&quot;&gt;job_id: &lt;span style=&quot;color: #cb4b16;&quot;&gt;int&lt;/span&gt;,&lt;/span&gt;&lt;/div&gt;&lt;div style=&quot;color: rgb(131, 148, 150);&quot;&gt;&lt;span style=&quot;background-color: rgb(24, 20, 29);&quot;&gt;file_version: &lt;span style=&quot;color: #cb4b16;&quot;&gt;str&lt;/span&gt;,&lt;/span&gt;&lt;/div&gt;&lt;div style=&quot;&quot;&gt;&lt;span style=&quot;background-color: rgb(24, 20, 29);&quot;&gt;&lt;font style=&quot;font-size: 14px;&quot; color=&quot;#839496&quot;&gt;run_stats_only: &lt;/font&gt;&lt;font style=&quot;font-size: 14px;&quot; color=&quot;#cb4b16&quot;&gt;str&lt;/font&gt;&lt;br&gt;&lt;font style=&quot;font-size: 14px;&quot; color=&quot;#cb4b16&quot;&gt;&lt;u&gt;Properties&lt;/u&gt;&lt;/font&gt;&lt;br&gt;&lt;font style=&quot;font-size: 14px;&quot; color=&quot;#73899e&quot;&gt;file_type*&lt;/font&gt;&lt;/span&gt;&lt;/div&gt;&lt;div style=&quot;&quot;&gt;&lt;br&gt;&lt;/div&gt;&lt;/div&gt;&lt;/div&gt;&lt;/div&gt;" style="rounded=0;whiteSpace=wrap;html=1;align=left;verticalAlign=top;container=0;" parent="1" vertex="1">
                    <mxGeometry x="80" y="289" width="220" height="207" as="geometry"/>
                </mxCell>
                <mxCell id="9" style="edgeStyle=none;html=1;exitX=0.5;exitY=1;exitDx=0;exitDy=0;entryX=0.5;entryY=0;entryDx=0;entryDy=0;fillColor=#b1ddf0;strokeColor=#10739e;strokeWidth=3;" parent="1" source="10" target="2" edge="1">
                    <mxGeometry relative="1" as="geometry"/>
                </mxCell>
                <mxCell id="10" value="&lt;b&gt;get_combined_list(&lt;/b&gt;)&lt;br&gt;&lt;div style=&quot;text-align: left;&quot;&gt;&lt;span style=&quot;font-size: 9px;&quot;&gt;&lt;font color=&quot;#b1aaaa&quot;&gt;&lt;i&gt;* this function will use the TAF Run ID Class instance passing the params to get the tuple of keys to state_codes&lt;/i&gt;&lt;/font&gt;&lt;/span&gt;&lt;/div&gt;" style="rounded=0;whiteSpace=wrap;html=1;labelBackgroundColor=#18141d;" parent="1" vertex="1">
                    <mxGeometry x="130" y="539" width="120" height="90" as="geometry"/>
                </mxCell>
                <mxCell id="14" style="edgeStyle=none;html=1;exitX=0.5;exitY=1;exitDx=0;exitDy=0;exitPerimeter=0;fillColor=#b1ddf0;strokeColor=#10739e;strokeWidth=3;" edge="1" parent="1" source="13" target="11">
                    <mxGeometry relative="1" as="geometry"/>
                </mxCell>
                <mxCell id="13" value="Databricks Job" style="sketch=0;html=1;dashed=0;whitespace=wrap;points=[[0.005,0.63,0],[0.1,0.2,0],[0.9,0.2,0],[0.5,0,0],[0.995,0.63,0],[0.72,0.99,0],[0.5,1,0],[0.28,0.99,0]];verticalLabelPosition=bottom;align=center;verticalAlign=top;shape=mxgraph.kubernetes.icon;prIcon=job;fillColor=none;fontColor=#ffffff;strokeColor=#006EAF;" vertex="1" parent="1">
                    <mxGeometry x="49" width="50" height="48" as="geometry"/>
                </mxCell>
                <mxCell id="18" value="" style="edgeStyle=none;html=1;endArrow=classic;fillColor=#b1ddf0;strokeColor=#10739e;entryX=0.117;entryY=-0.023;entryDx=0;entryDy=0;entryPerimeter=0;strokeWidth=3;endFill=1;" edge="1" parent="1" source="11" target="5">
                    <mxGeometry relative="1" as="geometry">
                        <mxPoint x="75.55169975425974" y="159.805827502203" as="sourcePoint"/>
                        <mxPoint x="75" y="270" as="targetPoint"/>
                    </mxGeometry>
                </mxCell>
                <mxCell id="16" value="&lt;i&gt;File Type&lt;/i&gt;" style="text;html=1;align=center;verticalAlign=middle;resizable=0;points=[];autosize=1;strokeColor=none;fillColor=none;strokeWidth=3;" vertex="1" parent="1">
                    <mxGeometry x="39" y="205" width="70" height="30" as="geometry"/>
                </mxCell>
                <mxCell id="11" value="TAF Notebook" style="sketch=0;outlineConnect=0;fontColor=#ffffff;fillColor=#1ba1e2;strokeColor=#006EAF;dashed=0;verticalLabelPosition=bottom;verticalAlign=top;align=center;html=1;fontSize=12;fontStyle=0;aspect=fixed;pointerEvents=1;shape=mxgraph.aws4.sagemaker_notebook;" vertex="1" parent="1">
                    <mxGeometry x="49" y="106" width="52.31" height="60" as="geometry"/>
                </mxCell>
                <mxCell id="20" value="&lt;i&gt;*&lt;font style=&quot;font-family: Consolas, &amp;quot;Courier New&amp;quot;, monospace; background-color: rgb(24, 20, 29); font-size: 9px;&quot;&gt;Should be one of the entries &lt;br&gt;&lt;div style=&quot;&quot;&gt;in the&amp;nbsp;&lt;font style=&quot;&quot;&gt;file_type_tables dictionary&lt;/font&gt;&lt;/div&gt;&lt;/font&gt;&lt;/i&gt;&lt;font style=&quot;font-family: Consolas, &amp;quot;Courier New&amp;quot;, monospace; font-size: 9px;&quot;&gt;&lt;br&gt;&lt;/font&gt;" style="text;html=1;align=left;verticalAlign=middle;resizable=0;points=[];autosize=1;strokeColor=none;fillColor=none;fontSize=14;fontColor=#839496;labelBackgroundColor=#1c1616;strokeWidth=3;" vertex="1" parent="1">
                    <mxGeometry x="350" y="436" width="190" height="60" as="geometry"/>
                </mxCell>
            </root>
        </mxGraphModel>
    </diagram>
</mxfile>